<?xml version="1.0" encoding="UTF-8"?>
<!DOCTYPE svg PUBLIC "-//W3C//DTD SVG 1.1//EN" "http://www.w3.org/Graphics/SVG/1.1/DTD/svg11.dtd">
<!-- Creator: CorelDRAW -->
<svg xmlns="http://www.w3.org/2000/svg" xml:space="preserve" width="210mm" height="297mm" version="1.1" style="shape-rendering:geometricPrecision; text-rendering:geometricPrecision; image-rendering:optimizeQuality; fill-rule:evenodd; clip-rule:evenodd"
viewBox="0 0 21000 29700"
 xmlns:xlink="http://www.w3.org/1999/xlink"
 xmlns:xodm="http://www.corel.com/coreldraw/odm/2003">
 <defs>
  <style type="text/css">
   <![CDATA[
    .fil0 {fill:#2B2B2A}
   ]]>
  </style>
 </defs>
 <g id="‘лой_x0020_1">
  <metadata id="CorelCorpID_0Corel-Layer"/>
  <g id="_105553122440160">
   <path class="fil0" d="M4023.13 8872.22c0,234.74 143.17,381.93 297.05,381.93l10269.46 0c153.88,0 297.05,-147.19 297.05,-381.93 0,-132.5 -164.55,-297.05 -297.05,-297.05l-10269.46 0c-132.5,0 -297.05,164.55 -297.05,297.05z"/>
   <path class="fil0" d="M4023.13 6495.82c0,234.74 143.17,381.92 297.05,381.92l10269.46 0c153.88,0 297.05,-147.18 297.05,-381.92 0,-132.5 -164.55,-297.05 -297.05,-297.05l-10269.46 0c-132.5,0 -297.05,164.55 -297.05,297.05z"/>
   <path class="fil0" d="M7417.99 11248.63c0,234.74 143.18,381.92 297.05,381.92l6874.6 0c153.88,0 297.05,-147.18 297.05,-381.92 0,-132.5 -164.55,-297.05 -297.05,-297.05l-6874.6 0c-132.5,0 -297.05,164.55 -297.05,297.05z"/>
  </g>
 </g>
</svg>
